<!-- icon666.com - MILLIONS vector ICONS FREE --><svg viewBox="0 0 368 368" xmlns="http://www.w3.org/2000/svg"><path d="m305.710938 112.65625c9.210937-12.359375 14.289062-26.542969 14.289062-40.65625 0-39.703125-32.296875-72-72-72-27.832031 0-52.015625 15.863281-64 39.03125-11.984375-23.167969-36.167969-39.03125-64-39.03125-39.703125 0-72 32.296875-72 72 0 14.113281 5.078125 28.296875 14.289062 40.65625-35.121093 4.75-62.289062 34.9375-62.289062 71.34375s27.167969 66.59375 62.289062 71.34375c-9.210937 12.359375-14.289062 26.542969-14.289062 40.65625 0 39.703125 32.296875 72 72 72 27.832031 0 52.015625-15.863281 64-39.03125 11.984375 23.167969 36.167969 39.03125 64 39.03125 39.703125 0 72-32.296875 72-72 0-14.113281-5.078125-28.296875-14.289062-40.65625 35.121093-4.75 62.289062-34.9375 62.289062-71.34375s-27.167969-66.59375-62.289062-71.34375zm-185.710938 239.34375c-30.871094 0-56-25.128906-56-56 0-14.128906 7-28.535156 19.191406-40h36.808594c4.425781 0 8-3.574219 8-8s-3.574219-8-8-8h-40c-.136719 0-.246094.070312-.382812.078125-.191407.011719-.378907-.046875-.578126-.023437-1.109374.136718-3 .042968-4.550781-.007813l-2.488281-.046875c-30.871094 0-56-25.128906-56-56s25.128906-56 56-56l2.488281-.046875c1.550781-.058594 3.449219-.160156 4.550781-.007813.199219.023438.386719-.035156.585938-.023437.128906.007813.238281.078125.375.078125h40c4.425781 0 8-3.574219 8-8s-3.574219-8-8-8h-36.808594c-12.191406-11.464844-19.191406-25.871094-19.191406-40 0-30.871094 25.128906-56 56-56s56 25.128906 56 56v.105469c-6.695312-5.058594-14.984375-8.105469-24-8.105469h-32c-4.425781 0-8 3.574219-8 8s3.574219 8 8 8h32c13.230469 0 24 10.769531 24 24v80.105469c-6.695312-5.058594-14.984375-8.105469-24-8.105469h-57.472656c-3.3125-9.289062-12.113282-16-22.527344-16-13.230469 0-24 10.769531-24 24s10.769531 24 24 24c10.414062 0 19.214844-6.710938 22.527344-16h57.472656c13.230469 0 24 10.769531 24 24v48c0 13.230469-10.769531 24-24 24h-32c-4.425781 0-8 3.574219-8 8s3.574219 8 8 8h32c9.015625 0 17.304688-3.046875 24-8.105469v.105469c0 30.871094-25.128906 56-56 56zm-40-168c0 4.414062-3.585938 8-8 8s-8-3.585938-8-8 3.585938-8 8-8 8 3.585938 8 8zm216 56-2.488281.046875c-1.558594.050781-3.457031.144531-4.550781.007813-.191407-.023438-.375.035156-.578126.023437-.136718-.007813-.246093-.078125-.382812-.078125h-40c-4.425781 0-8 3.574219-8 8s3.574219 8 8 8h36.808594c12.191406 11.464844 19.191406 25.871094 19.191406 40 0 30.871094-25.128906 56-56 56s-56-25.128906-56-56v-.105469c6.695312 5.058594 14.984375 8.105469 24 8.105469h32c4.425781 0 8-3.574219 8-8s-3.574219-8-8-8h-32c-13.230469 0-24-10.769531-24-24v-48c0-13.230469 10.769531-24 24-24h57.472656c3.3125 9.289062 12.113282 16 22.527344 16 13.230469 0 24-10.769531 24-24s-10.769531-24-24-24c-10.414062 0-19.214844 6.710938-22.527344 16h-57.472656c-9.015625 0-17.304688 3.046875-24 8.105469v-80.105469c0-13.230469 10.769531-24 24-24h32c4.425781 0 8-3.574219 8-8s-3.574219-8-8-8h-32c-9.015625 0-17.304688 3.046875-24 8.105469v-.105469c0-30.871094 25.128906-56 56-56s56 25.128906 56 56c0 14.128906-7 28.535156-19.191406 40h-36.808594c-4.425781 0-8 3.574219-8 8s3.574219 8 8 8h40c.136719 0 .246094-.070312.382812-.078125.203126-.011719.386719.046875.585938.023437 1.101562-.152343 2.992188-.050781 4.550781.007813l2.480469.046875c30.871094 0 56 25.128906 56 56s-25.128906 56-56 56zm-8-56c0-4.414062 3.585938-8 8-8s8 3.585938 8 8-3.585938 8-8 8-8-3.585938-8-8zm0 0"></path></svg>